<svg width="404" height="192" viewBox="0 0 404 192" fill="none" xmlns="http://www.w3.org/2000/svg">
<path d="M352.184 146.343C347.128 146.343 342.616 145.223 338.648 142.983C334.68 140.679 331.544 137.543 329.24 133.575C326.936 129.607 325.784 125.095 325.784 120.039C325.784 114.983 326.936 110.471 329.24 106.503C331.544 102.535 334.68 99.431 338.648 97.191C342.616 94.887 347.128 93.735 352.184 93.735C357.176 93.735 361.656 94.887 365.624 97.191C369.592 99.431 372.696 102.535 374.936 106.503C377.24 110.471 378.392 114.983 378.392 120.039C378.392 125.095 377.24 129.607 374.936 133.575C372.696 137.543 369.592 140.679 365.624 142.983C361.656 145.223 357.176 146.343 352.184 146.343ZM352.184 135.879C354.936 135.879 357.368 135.175 359.48 133.767C361.656 132.359 363.352 130.471 364.568 128.103C365.848 125.735 366.456 123.047 366.392 120.039C366.456 116.967 365.848 114.247 364.568 111.879C363.352 109.511 361.656 107.655 359.48 106.311C357.368 104.903 354.936 104.199 352.184 104.199C349.432 104.199 346.936 104.903 344.696 106.311C342.52 107.655 340.824 109.543 339.608 111.975C338.392 114.343 337.784 117.031 337.784 120.039C337.784 123.047 338.392 125.735 339.608 128.103C340.824 130.471 342.52 132.359 344.696 133.767C346.936 135.175 349.432 135.879 352.184 135.879Z" fill="black"/>
<path d="M294.56 167.463C290.784 167.463 287.008 166.887 283.232 165.735C279.52 164.583 276.512 163.079 274.208 161.223L278.432 152.487C279.776 153.447 281.28 154.279 282.944 154.983C284.608 155.687 286.368 156.231 288.224 156.615C290.144 156.999 292.032 157.191 293.888 157.191C297.28 157.191 300.096 156.647 302.336 155.559C304.64 154.535 306.368 152.935 307.52 150.759C308.672 148.647 309.248 145.991 309.248 142.791V133.479L310.976 134.151C310.592 136.135 309.536 138.023 307.808 139.815C306.08 141.607 303.904 143.079 301.28 144.231C298.656 145.319 295.968 145.863 293.216 145.863C288.416 145.863 284.16 144.743 280.448 142.503C276.8 140.263 273.888 137.223 271.712 133.383C269.6 129.479 268.544 124.999 268.544 119.943C268.544 114.887 269.6 110.407 271.712 106.503C273.824 102.535 276.704 99.431 280.352 97.191C284.064 94.887 288.224 93.735 292.832 93.735C294.752 93.735 296.608 93.959 298.4 94.407C300.192 94.855 301.824 95.495 303.296 96.327C304.832 97.159 306.208 98.087 307.424 99.111C308.64 100.135 309.632 101.223 310.4 102.375C311.168 103.527 311.648 104.647 311.84 105.735L309.344 106.503L309.536 94.791H321.152V141.927C321.152 146.023 320.544 149.639 319.328 152.775C318.112 155.911 316.352 158.567 314.048 160.743C311.744 162.983 308.96 164.647 305.696 165.735C302.432 166.887 298.72 167.463 294.56 167.463ZM295.04 135.783C297.92 135.783 300.448 135.111 302.624 133.767C304.864 132.423 306.592 130.567 307.808 128.199C309.024 125.831 309.632 123.111 309.632 120.039C309.632 116.903 308.992 114.151 307.712 111.783C306.496 109.351 304.8 107.463 302.624 106.119C300.448 104.775 297.92 104.103 295.04 104.103C292.16 104.103 289.632 104.807 287.456 106.215C285.28 107.559 283.552 109.447 282.272 111.879C281.056 114.247 280.448 116.967 280.448 120.039C280.448 123.047 281.056 125.767 282.272 128.199C283.552 130.567 285.28 132.423 287.456 133.767C289.632 135.111 292.16 135.783 295.04 135.783Z" fill="black"/>
<path d="M219.068 145.383V94.791H230.588L230.78 105.159L228.572 106.311C229.212 104.007 230.46 101.927 232.316 100.071C234.172 98.151 236.38 96.615 238.94 95.463C241.5 94.311 244.124 93.735 246.812 93.735C250.652 93.735 253.852 94.503 256.412 96.039C259.036 97.575 260.988 99.879 262.268 102.951C263.612 106.023 264.284 109.863 264.284 114.471V145.383H252.476V115.335C252.476 112.775 252.124 110.663 251.42 108.999C250.716 107.271 249.628 106.023 248.156 105.255C246.684 104.423 244.892 104.039 242.78 104.103C241.052 104.103 239.452 104.391 237.98 104.967C236.572 105.479 235.324 106.247 234.236 107.271C233.212 108.231 232.38 109.351 231.74 110.631C231.164 111.911 230.876 113.319 230.876 114.855V145.383H225.02C223.868 145.383 222.78 145.383 221.756 145.383C220.796 145.383 219.9 145.383 219.068 145.383Z" fill="black"/>
<path d="M198.047 145.383V94.791H209.855V145.383H198.047ZM203.807 84.039C201.439 84.039 199.583 83.463 198.239 82.311C196.959 81.095 196.319 79.399 196.319 77.223C196.319 75.175 196.991 73.511 198.335 72.231C199.679 70.951 201.503 70.311 203.807 70.311C206.239 70.311 208.095 70.919 209.375 72.135C210.719 73.287 211.391 74.983 211.391 77.223C211.391 79.207 210.719 80.839 209.375 82.119C208.031 83.399 206.175 84.039 203.807 84.039Z" fill="black"/>
<path d="M104.327 146.343C100.167 146.343 96.3908 145.191 92.9988 142.887C89.6068 140.583 86.8868 137.447 84.8388 133.479C82.7908 129.511 81.7668 124.999 81.7668 119.943C81.7668 114.887 82.7908 110.375 84.8388 106.407C86.8868 102.439 89.6708 99.335 93.1908 97.095C96.7108 94.855 100.679 93.735 105.095 93.735C107.655 93.735 109.991 94.119 112.103 94.887C114.215 95.591 116.071 96.615 117.671 97.959C119.271 99.303 120.583 100.839 121.607 102.567C122.695 104.295 123.431 106.151 123.815 108.135L121.223 107.463V94.791H133.127V145.383H121.127V133.287L123.911 132.807C123.463 134.535 122.631 136.231 121.415 137.895C120.263 139.495 118.791 140.935 116.999 142.215C115.271 143.431 113.319 144.423 111.143 145.191C109.031 145.959 106.759 146.343 104.327 146.343ZM107.591 135.879C110.343 135.879 112.775 135.207 114.887 133.863C116.999 132.519 118.631 130.663 119.783 128.295C120.999 125.863 121.607 123.079 121.607 119.943C121.607 116.871 120.999 114.151 119.783 111.783C118.631 109.415 116.999 107.559 114.887 106.215C112.775 104.871 110.343 104.199 107.591 104.199C104.839 104.199 102.407 104.871 100.295 106.215C98.2468 107.559 96.6468 109.415 95.4948 111.783C94.3428 114.151 93.7668 116.871 93.7668 119.943C93.7668 123.079 94.3428 125.863 95.4948 128.295C96.6468 130.663 98.2468 132.519 100.295 133.863C102.407 135.207 104.839 135.879 107.591 135.879Z" fill="black"/>
<path d="M32.872 145.383V90.279C32.872 87.207 33.544 84.487 34.888 82.119C36.232 79.687 38.088 77.799 40.456 76.455C42.824 75.047 45.576 74.343 48.712 74.343C50.888 74.343 52.904 74.727 54.76 75.495C56.616 76.199 58.184 77.191 59.464 78.471L55.816 87.399C54.984 86.695 54.088 86.151 53.128 85.767C52.232 85.383 51.368 85.191 50.536 85.191C49.256 85.191 48.168 85.415 47.272 85.863C46.44 86.247 45.8 86.855 45.352 87.687C44.968 88.519 44.776 89.511 44.776 90.663V145.383H38.824C37.672 145.383 36.584 145.383 35.56 145.383C34.6 145.383 33.704 145.383 32.872 145.383ZM25 106.215V95.847H56.2V106.215H25ZM66.088 145.383V74.343H77.992V145.383H66.088Z" fill="black"/>
<path d="M158.109 26.687C157.875 25.451 156.615 24.7045 155.425 25.1118C135.465 31.944 112.963 49.8877 110.361 71.6752C110.222 72.839 111.733 73.3128 112.431 72.3715C120.909 60.9413 134.778 54.1988 149.11 54.7924C152.285 69.9612 133.405 96.3569 139.933 126.233C142.3 137.062 152.118 146.015 166.011 146.015C179.905 146.015 193.932 136.477 193.932 121.439C193.932 106.4 181.75 94.2094 166.722 94.2094C160.421 94.2095 154.62 96.3532 150.008 99.9516C151.257 90.918 155.895 83.8532 158.205 71.35C160.793 57.3434 160.942 41.6167 158.109 26.687ZM141.763 37.3832C144.431 37.3834 146.593 39.5465 146.594 42.2143C146.594 44.8821 144.431 47.0452 141.763 47.0453C139.095 47.0453 136.932 44.8822 136.932 42.2143C136.932 39.5464 139.095 37.3832 141.763 37.3832Z" fill="#FF5D73"/>
</svg>
