<svg width="192" height="192" viewBox="0 0 192 192" fill="none" xmlns="http://www.w3.org/2000/svg">
<path d="M105.025 39.4941C104.8 38.3076 103.59 37.5913 102.447 37.9824C83.2861 44.5413 61.6839 61.7667 59.1863 82.6826C59.0528 83.8003 60.5041 84.2556 61.1746 83.3516C69.3128 72.3786 82.6269 65.9058 96.3855 66.4756C99.4336 81.0376 81.3085 106.378 87.5759 135.059C89.8477 145.455 99.2737 154.05 112.611 154.05C125.949 154.05 139.415 144.893 139.415 130.456C139.415 116.019 127.72 104.316 113.294 104.316C107.244 104.316 101.675 106.374 97.2468 109.829C98.446 101.157 102.898 94.3743 105.116 82.3711C107.6 68.9247 107.744 53.8268 105.025 39.4941ZM89.3318 49.7637C91.8929 49.7637 93.9693 51.8393 93.9695 54.4004C93.9695 56.9616 91.893 59.0381 89.3318 59.0381C86.7708 59.0378 84.6951 56.9615 84.6951 54.4004C84.6953 51.8395 86.7709 49.7639 89.3318 49.7637Z" fill="#FF5D73"/>
</svg>
